<svg width="48" height="48" viewBox="0 0 48 48" fill="none" xmlns="http://www.w3.org/2000/svg">
<path d="M18 4H6C5.46957 4 4.96086 4.21071 4.58579 4.58579C4.21071 4.96086 4 5.46957 4 6V18C4 18.5304 4.21071 19.0391 4.58579 19.4142C4.96086 19.7893 5.46957 20 6 20H18C18.5304 20 19.0391 19.7893 19.4142 19.4142C19.7893 19.0391 20 18.5304 20 18V6C20 5.46957 19.7893 4.96086 19.4142 4.58579C19.0391 4.21071 18.5304 4 18 4ZM18 28H6C5.46957 28 4.96086 28.2107 4.58579 28.5858C4.21071 28.9609 4 29.4696 4 30V42C4 42.5304 4.21071 43.0391 4.58579 43.4142C4.96086 43.7893 5.46957 44 6 44H18C18.5304 44 19.0391 43.7893 19.4142 43.4142C19.7893 43.0391 20 42.5304 20 42V30C20 29.4696 19.7893 28.9609 19.4142 28.5858C19.0391 28.2107 18.5304 28 18 28ZM42 4H30C29.4696 4 28.9609 4.21071 28.5858 4.58579C28.2107 4.96086 28 5.46957 28 6V18C28 18.5304 28.2107 19.0391 28.5858 19.4142C28.9609 19.7893 29.4696 20 30 20H42C42.5304 20 43.0391 19.7893 43.4142 19.4142C43.7893 19.0391 44 18.5304 44 18V6C44 5.46957 43.7893 4.96086 43.4142 4.58579C43.0391 4.21071 42.5304 4 42 4Z" stroke="url(#paint0_linear_631_25)" stroke-width="4" stroke-linejoin="round"/>
<path d="M28 28H44M36 36H44M28 44H44" stroke="url(#paint1_linear_631_25)" stroke-width="4" stroke-linecap="round" stroke-linejoin="round"/>
<defs>
<linearGradient id="paint0_linear_631_25" x1="36.4627" y1="8.19423" x2="13.2742" y2="40.2268" gradientUnits="userSpaceOnUse">
<stop stop-color="#000"/>
<stop offset="1" stop-color="#000"/>
</linearGradient>
<linearGradient id="paint1_linear_631_25" x1="40.9851" y1="29.6777" x2="31.7097" y2="42.4907" gradientUnits="userSpaceOnUse">
<stop stop-color="#000"/>
<stop offset="1" stop-color="#000"/>
</linearGradient>
</defs>
</svg>
