<svg width="24" height="24" viewBox="0 0 24 24" fill="none" xmlns="http://www.w3.org/2000/svg">
<path d="M12 21.9C11.8833 21.9 11.775 21.8917 11.675 21.875C11.575 21.8584 11.475 21.8334 11.375 21.8C9.125 21.05 7.33333 19.6627 6 17.638C4.66667 15.6134 4 13.434 4 11.1V6.37502C4 5.95836 4.121 5.58336 4.363 5.25002C4.605 4.91669 4.91733 4.67502 5.3 4.52502L11.3 2.27502C11.5333 2.19169 11.7667 2.15002 12 2.15002C12.2333 2.15002 12.4667 2.19169 12.7 2.27502L18.7 4.52502C19.0833 4.67502 19.396 4.91669 19.638 5.25002C19.88 5.58336 20.0007 5.95836 20 6.37502V11.1C20 12.15 19.8623 13.171 19.587 14.163C19.3117 15.155 18.916 16.1007 18.4 17L15.45 14.05C15.6333 13.7334 15.771 13.4044 15.863 13.063C15.955 12.7217 16.0007 12.3674 16 12C16 10.9 15.6083 9.95836 14.825 9.17502C14.0417 8.39169 13.1 8.00002 12 8.00002C10.9 8.00002 9.95833 8.39169 9.175 9.17502C8.39167 9.95836 8 10.9 8 12C8 13.1 8.39167 14.0417 9.175 14.825C9.95833 15.6084 10.9 16 12 16C12.35 16 12.696 15.9544 13.038 15.863C13.38 15.7717 13.7007 15.634 14 15.45L17.225 18.65C16.5917 19.4 15.896 20.0377 15.138 20.563C14.38 21.0884 13.5423 21.5007 12.625 21.8C12.525 21.8334 12.425 21.8584 12.325 21.875C12.225 21.8917 12.1167 21.9 12 21.9ZM12 14C11.45 14 10.9793 13.804 10.588 13.412C10.1967 13.02 10.0007 12.5494 10 12C9.99933 11.4507 10.1953 10.98 10.588 10.588C10.9807 10.196 11.4513 10 12 10C12.5487 10 13.0197 10.196 13.413 10.588C13.8063 10.98 14.002 11.4507 14 12C13.998 12.5494 13.8023 13.0204 13.413 13.413C13.0237 13.8057 12.5527 14.0014 12 14Z" fill="url(#paint0_linear_631_29)"/>
<defs>
<linearGradient id="paint0_linear_631_29" x1="16.9851" y1="4.22093" x2="5.00884" y2="17.6236" gradientUnits="userSpaceOnUse">
<stop stop-color="#black"/>
<stop offset="1" stop-color="#black"/>
</linearGradient>
</defs>
</svg>
