<svg width="21" height="21" viewBox="0 0 21 21" fill="none" xmlns="http://www.w3.org/2000/svg">
<path d="M14.5 7.5L10.522 3.5L6.5 7.5M10.522 3.521V15.5M7.5 10.5H5.5C4.96957 10.5 4.46086 10.7107 4.08579 11.0858C3.71071 11.4609 3.5 11.9696 3.5 12.5V16.5C3.5 17.0304 3.71071 17.5391 4.08579 17.9142C4.46086 18.2893 4.96957 18.5 5.5 18.5H15.5C16.0304 18.5 16.5391 18.2893 16.9142 17.9142C17.2893 17.5391 17.5 17.0304 17.5 16.5V12.5C17.5 11.9696 17.2893 11.4609 16.9142 11.0858C16.5391 10.7107 16.0304 10.5 15.5 10.5H13.5" stroke="url(#paint0_linear_631_19)" stroke-linecap="round" stroke-linejoin="round"/>
<defs>
<linearGradient id="paint0_linear_631_19" x1="14.8619" y1="5.07284" x2="5.99618" y2="16.5035" gradientUnits="userSpaceOnUse">
<stop stop-color="#000"/>
<stop offset="1" stop-color="#000"/>
</linearGradient>
</defs>
</svg>
