<svg width="300" height="300" viewBox="0 0 500 400" fill="none" xmlns="http://www.w3.org/2000/svg">
<g clip-path="url(#clip0_899_17810)">
<path d="M317.182 182.747L299.616 125.383C299.323 124.428 298.846 123.539 298.21 122.768C297.574 121.997 296.792 121.358 295.909 120.889C295.026 120.42 294.06 120.13 293.064 120.035C292.069 119.939 291.065 120.041 290.109 120.334L248.577 133.043L162.944 159.254L121.412 171.967C119.483 172.559 117.867 173.893 116.92 175.675C115.973 177.456 115.772 179.541 116.361 181.471L176.399 377.515C176.878 379.073 177.843 380.437 179.153 381.406C180.464 382.375 182.05 382.899 183.681 382.901C184.435 382.901 185.185 382.788 185.906 382.565L214.376 373.854L215.271 373.576V372.64L214.376 372.913L185.642 381.71C183.939 382.229 182.099 382.052 180.527 381.217C178.955 380.382 177.778 378.957 177.255 377.256L117.221 181.207C116.962 180.364 116.871 179.478 116.955 178.6C117.039 177.722 117.295 176.869 117.709 176.091C118.122 175.312 118.686 174.622 119.367 174.061C120.047 173.5 120.832 173.079 121.676 172.822L163.208 160.109L248.842 133.902L290.374 121.189C291.014 120.994 291.679 120.894 292.348 120.893C293.784 120.897 295.182 121.359 296.336 122.214C297.489 123.069 298.339 124.271 298.761 125.643L316.246 182.747L316.524 183.642H317.455L317.182 182.747Z" fill="#3F3D56"/>
<path d="M170.962 177.217C170.099 177.216 169.259 176.939 168.565 176.426C167.871 175.913 167.36 175.192 167.106 174.367L161.339 155.533C161.184 155.027 161.13 154.496 161.18 153.969C161.231 153.442 161.385 152.931 161.633 152.463C161.881 151.996 162.219 151.582 162.628 151.246C163.036 150.909 163.506 150.656 164.013 150.501L242.795 126.388C243.817 126.077 244.921 126.183 245.865 126.684C246.808 127.185 247.515 128.04 247.828 129.061L253.596 147.895C253.908 148.917 253.801 150.021 253.3 150.964C252.799 151.908 251.944 152.614 250.922 152.928L172.14 177.04C171.758 177.157 171.361 177.217 170.962 177.217Z" fill="#F0CF7B"/>
<path d="M201.174 140.121C206.12 140.121 210.13 136.113 210.13 131.168C210.13 126.223 206.12 122.215 201.174 122.215C196.228 122.215 192.219 126.223 192.219 131.168C192.219 136.113 196.228 140.121 201.174 140.121Z" fill="#F0CF7B"/>
<path d="M201.175 136.837C204.307 136.837 206.846 134.299 206.846 131.168C206.846 128.036 204.307 125.498 201.175 125.498C198.043 125.498 195.504 128.036 195.504 131.168C195.504 134.299 198.043 136.837 201.175 136.837Z" fill="grey"/>
<path d="M316.247 182.746H221.989C219.971 182.749 218.037 183.552 216.61 184.978C215.183 186.405 214.38 188.339 214.377 190.356V372.913L215.273 372.64V190.356C215.275 188.576 215.983 186.869 217.242 185.611C218.501 184.352 220.209 183.644 221.989 183.641H316.525L316.247 182.746ZM398.415 182.746H221.989C219.971 182.749 218.037 183.552 216.61 184.978C215.183 186.405 214.38 188.339 214.377 190.356V395.385C214.38 397.403 215.183 399.337 216.61 400.764C218.037 402.19 219.971 402.993 221.989 402.996H398.415C400.433 402.993 402.368 402.19 403.795 400.764C405.222 399.337 406.025 397.403 406.028 395.385V190.356C406.025 188.339 405.222 186.405 403.795 184.978C402.368 183.552 400.433 182.749 398.415 182.746ZM405.132 395.385C405.13 397.166 404.422 398.872 403.163 400.131C401.903 401.39 400.196 402.098 398.415 402.1H221.989C220.209 402.098 218.501 401.39 217.242 400.131C215.983 398.872 215.275 397.166 215.273 395.385V190.356C215.275 188.576 215.983 186.869 217.242 185.611C218.501 184.352 220.209 183.644 221.989 183.641H398.415C400.196 183.644 401.903 184.352 403.163 185.611C404.422 186.869 405.13 188.576 405.132 190.356V395.385Z" fill="#3F3D56"/>
<path d="M351.399 202.444H269.007C267.938 202.443 266.914 202.018 266.158 201.263C265.403 200.508 264.978 199.484 264.977 198.416V178.718C264.978 177.65 265.403 176.626 266.158 175.871C266.914 175.116 267.938 174.691 269.007 174.689H351.399C352.467 174.691 353.491 175.116 354.247 175.871C355.002 176.626 355.427 177.65 355.429 178.718V198.416C355.427 199.484 355.002 200.508 354.247 201.263C353.491 202.018 352.467 202.443 351.399 202.444Z" fill="#F0CF7B"/>
<path d="M310.202 176.031C315.148 176.031 319.157 172.023 319.157 167.078C319.157 162.133 315.148 158.125 310.202 158.125C305.256 158.125 301.246 162.133 301.246 167.078C301.246 172.023 305.256 176.031 310.202 176.031Z" fill="#F0CF7B"/>
<path d="M310.203 172.532C313.215 172.532 315.658 170.09 315.658 167.078C315.658 164.067 313.215 161.625 310.203 161.625C307.19 161.625 304.748 164.067 304.748 167.078C304.748 170.09 307.19 172.532 310.203 172.532Z" fill="grey"/>
</g>
<defs>
<clipPath id="clip0_899_17810">
<rect width="290" height="283" fill="white" transform="translate(116.027 119.996)"/>
</clipPath>
</defs>
</svg>
