<svg width="12" height="12" viewBox="0 0 12 12" fill="none" xmlns="http://www.w3.org/2000/svg">
<path d="M10.171 6.2572C10.171 8.74606 8.15353 10.7636 5.66467 10.7636C3.17582 10.7636 1.15833 8.74606 1.15833 6.2572C1.15833 3.76835 3.17582 1.75085 5.66467 1.75085V2.65212C4.81692 2.65219 3.99631 2.95101 3.34702 3.49609C2.69773 4.04116 2.2613 4.79762 2.11441 5.63254C1.96752 6.46747 2.11956 7.32746 2.54383 8.06141C2.9681 8.79536 3.63745 9.35631 4.43427 9.64571C5.2311 9.93512 6.10442 9.93445 6.9008 9.64384C7.69719 9.35322 8.36568 8.79125 8.78883 8.05665C9.21198 7.32206 9.36271 6.46184 9.21455 5.62714C9.06639 4.79243 8.6288 4.03664 7.97868 3.49256L7.01658 4.45466V1.75085H9.72039L8.61768 2.85356C9.10572 3.27616 9.49706 3.79888 9.76509 4.38619C10.0331 4.97349 10.1716 5.61162 10.171 6.2572Z" fill="url(#paint0_linear_549_85)"/>
<defs>
<linearGradient id="paint0_linear_549_85" x1="8.47273" y1="2.69589" x2="3.24796" y2="9.91339" gradientUnits="userSpaceOnUse">
<stop stop-color="#FFDE6D"/>
<stop offset="1" stop-color="#C58B41"/>
</linearGradient>
</defs>
</svg>
