<svg width="15" height="16" viewBox="0 0 15 16" fill="none" xmlns="http://www.w3.org/2000/svg">
<path d="M9.94897 12.75V10.169C9.94883 10.0558 9.92638 9.94372 9.8829 9.83921C9.83942 9.7347 9.77576 9.63979 9.69557 9.5599C9.61538 9.48001 9.52023 9.41672 9.41556 9.37363C9.31089 9.33054 9.19875 9.30851 9.08556 9.3088H6.20822C6.09503 9.30851 5.98289 9.33054 5.87822 9.37363C5.77355 9.41672 5.6784 9.48001 5.59821 9.5599C5.51802 9.63979 5.45437 9.7347 5.41088 9.83921C5.3674 9.94372 5.34495 10.0558 5.34481 10.169V12.75M9.94897 3.15438V4.4338C9.94883 4.54699 9.92638 4.65904 9.8829 4.76355C9.83942 4.86806 9.77576 4.96297 9.69557 5.04286C9.61538 5.12275 9.52023 5.18604 9.41556 5.22913C9.31089 5.27222 9.19875 5.29425 9.08556 5.29396H6.20822C6.09503 5.29425 5.98289 5.27222 5.87822 5.22913C5.77355 5.18604 5.6784 5.12275 5.59821 5.04286C5.51802 4.96297 5.45437 4.86806 5.41088 4.76355C5.3674 4.65904 5.34495 4.54699 5.34481 4.4338V3.00001M9.94897 3.15438C9.72434 3.05265 9.48058 3.00002 9.23397 3.00001H5.34481M9.94897 3.15438C10.1353 3.23888 10.307 3.35696 10.4549 3.50376L11.7451 4.79021C11.9054 4.94964 12.0325 5.13912 12.1193 5.3478C12.2061 5.55648 12.2509 5.78024 12.2511 6.00626V11.0286C12.2509 11.255 12.2061 11.4792 12.1193 11.6883C12.0324 11.8974 11.9052 12.0873 11.7448 12.2472C11.5845 12.4071 11.3942 12.5338 11.1849 12.6201C10.9755 12.7064 10.7512 12.7505 10.5248 12.75H4.76956C4.54313 12.7506 4.31881 12.7065 4.10943 12.6203C3.90005 12.5341 3.70973 12.4074 3.54934 12.2476C3.38895 12.0878 3.26165 11.8979 3.17472 11.6888C3.08779 11.4797 3.04294 11.2556 3.04272 11.0291V4.72034C3.04301 4.49395 3.08792 4.26985 3.17488 4.06083C3.26184 3.85181 3.38915 3.66199 3.54953 3.50221C3.70991 3.34244 3.90021 3.21584 4.10956 3.12967C4.3189 3.0435 4.54317 2.99944 4.76956 3.00001H5.34481" stroke="url(#paint0_linear_611_18)" stroke-width="0.8125" stroke-linecap="round" stroke-linejoin="round"/>
<defs>
<linearGradient id="paint0_linear_611_18" x1="10.5159" y1="4.02235" x2="4.77047" y2="11.5181" gradientUnits="userSpaceOnUse">
<stop stop-color="#FFDE6D"/>
<stop offset="1" stop-color="#C58B41"/>
</linearGradient>
</defs>
</svg>
