<svg width="12" height="12" viewBox="0 0 12 12" fill="none" xmlns="http://www.w3.org/2000/svg">
<path d="M6.36166 11.3617C4.94251 11.3617 3.706 10.8913 2.65213 9.95056C1.59826 9.00981 0.993989 7.8348 0.839323 6.42552H2.10422C2.24819 7.49503 2.72391 8.37942 3.53139 9.07871C4.33886 9.778 5.28229 10.1277 6.36166 10.1277C7.56485 10.1277 8.58561 9.70869 9.42394 8.87078C10.2623 8.03286 10.6812 7.0121 10.6808 5.8085C10.6804 4.6049 10.2614 3.58435 9.42394 2.74684C8.58644 1.90934 7.56568 1.49018 6.36166 1.48935C5.65209 1.48935 4.98879 1.65389 4.37177 1.98297C3.75475 2.31205 3.23542 2.76453 2.81379 3.34042H4.5106V4.57446H0.808472V0.872331H2.04251V2.32233C2.56698 1.66418 3.20724 1.15513 3.9633 0.795204C4.71936 0.435275 5.51881 0.25531 6.36166 0.25531C7.13294 0.25531 7.85547 0.401955 8.52926 0.695246C9.20305 0.988537 9.78922 1.38425 10.2878 1.8824C10.7863 2.38054 11.1822 2.96671 11.4755 3.64091C11.7688 4.3151 11.9153 5.03764 11.9149 5.8085C11.9144 6.57937 11.768 7.3019 11.4755 7.9761C11.1831 8.6503 10.7871 9.23647 10.2878 9.73461C9.78839 10.2327 9.20222 10.6287 8.52926 10.9224C7.85629 11.2161 7.13376 11.3625 6.36166 11.3617ZM8.08932 8.39999L5.74464 6.05531V2.7234H6.97868V5.56169L8.95315 7.53616L8.08932 8.39999Z" fill="url(#paint0_linear_498_188)"/>
<defs>
<linearGradient id="paint0_linear_498_188" x1="9.82204" y1="1.41988" x2="3.38354" y2="10.314" gradientUnits="userSpaceOnUse">
<stop stop-color="#FFDE6D"/>
<stop offset="1" stop-color="#C58B41"/>
</linearGradient>
</defs>
</svg>
