<svg width="209" height="209" viewBox="0 0 209 209" fill="none" xmlns="http://www.w3.org/2000/svg">
<path fill-rule="evenodd" clip-rule="evenodd" d="M31.3501 52.25C31.3501 49.4785 32.4511 46.8205 34.4108 44.8608C36.3706 42.901 39.0286 41.8 41.8001 41.8H167.2C169.972 41.8 172.63 42.901 174.589 44.8608C176.549 46.8205 177.65 49.4785 177.65 52.25C177.65 55.0216 176.549 57.6796 174.589 59.6393C172.63 61.5991 169.972 62.7 167.2 62.7H41.8001C39.0286 62.7 36.3706 61.5991 34.4108 59.6393C32.4511 57.6796 31.3501 55.0216 31.3501 52.25ZM31.3501 104.5C31.3501 101.729 32.4511 99.0705 34.4108 97.1108C36.3706 95.151 39.0286 94.05 41.8001 94.05H167.2C169.972 94.05 172.63 95.151 174.589 97.1108C176.549 99.0705 177.65 101.729 177.65 104.5C177.65 107.272 176.549 109.93 174.589 111.889C172.63 113.849 169.972 114.95 167.2 114.95H41.8001C39.0286 114.95 36.3706 113.849 34.4108 111.889C32.4511 109.93 31.3501 107.272 31.3501 104.5ZM94.0501 156.75C94.0501 153.979 95.1511 151.321 97.1108 149.361C99.0706 147.401 101.729 146.3 104.5 146.3H167.2C169.972 146.3 172.63 147.401 174.589 149.361C176.549 151.321 177.65 153.979 177.65 156.75C177.65 159.522 176.549 162.18 174.589 164.139C172.63 166.099 169.972 167.2 167.2 167.2H104.5C101.729 167.2 99.0706 166.099 97.1108 164.139C95.1511 162.18 94.0501 159.522 94.0501 156.75Z" fill="url(#paint0_linear_544_12)"/>
<defs>
<linearGradient id="paint0_linear_544_12" x1="150.082" y1="54.949" x2="81.5166" y2="165.452" gradientUnits="userSpaceOnUse">
<stop stop-color="#FFDE6D"/>
<stop offset="1" stop-color="#C58B41"/>
</linearGradient>
</defs>
</svg>
